<svg width="17" height="18" viewBox="0 0 17 18" fill="currentColor" xmlns="http://www.w3.org/2000/svg">
        <path d="M16.99 8.495C16.99 7.91538 16.9357 7.34784 16.827 6.79238C16.7062 6.23691 16.5372 5.7056 16.3198 5.19843C16.1145 4.69127 15.8549 4.20826 15.541 3.74939C15.2391 3.29053 14.8949 2.86789 14.5085 2.48148C14.1221 2.10715 13.6995 1.763 13.2406 1.44904C12.7938 1.14716 12.3168 0.887537 11.8097 0.670181C11.3025 0.452825 10.7712 0.289808 10.2157 0.18113C9.66027 0.0603767 9.08669 0 8.495 0C7.90331 0 7.32973 0.0603767 6.77426 0.18113C6.2188 0.289808 5.68748 0.452825 5.18032 0.670181C4.67316 0.887537 4.19618 1.14716 3.74939 1.44904C3.29053 1.763 2.86789 2.10715 2.48148 2.48148C2.09507 2.86789 1.75092 3.29053 1.44904 3.74939C1.13508 4.20826 0.869424 4.69127 0.652068 5.19843C0.446787 5.7056 0.28377 6.23691 0.163017 6.79238C0.054339 7.34784 0 7.91538 0 8.495C0 9.08669 0.054339 9.66027 0.163017 10.2157C0.28377 10.7712 0.446787 11.3025 0.652068 11.8097C0.869424 12.3168 1.13508 12.7999 1.44904 13.2587C1.75092 13.7055 2.09507 14.1221 2.48148 14.5085C2.86789 14.8949 3.29053 15.2391 3.74939 15.541C4.19618 15.8549 4.67316 16.1206 5.18032 16.3379C5.68748 16.5553 6.2188 16.7183 6.77426 16.827C7.32973 16.9477 7.90331 17.0081 8.495 17.0081C9.08669 17.0081 9.66027 16.9477 10.2157 16.827C10.7712 16.7183 11.3025 16.5553 11.8097 16.3379C12.3168 16.1206 12.7938 15.8549 13.2406 15.541C13.6995 15.2391 14.1221 14.8949 14.5085 14.5085C14.8949 14.1221 15.2391 13.7055 15.541 13.2587C15.8549 12.7999 16.1145 12.3168 16.3198 11.8097C16.5372 11.3025 16.7062 10.7712 16.827 10.2157C16.9357 9.66027 16.99 9.08669 16.99 8.495ZM15.4504 8.495C15.4504 9.46103 15.2693 10.3667 14.907 11.212C14.5447 12.0572 14.0497 12.7938 13.4217 13.4217C12.7817 14.0497 12.0391 14.5447 11.1938 14.907C10.3606 15.2693 9.46103 15.4504 8.495 15.4504C7.52897 15.4504 6.62332 15.2693 5.77805 14.907C4.94485 14.5447 4.20826 14.0497 3.56826 13.4217C2.94034 12.7938 2.44526 12.0572 2.083 11.212C1.72074 10.3667 1.53961 9.46103 1.53961 8.495C1.53961 7.54105 1.72074 6.64144 2.083 5.79616C2.44526 4.95089 2.94034 4.21429 3.56826 3.58638C4.20826 2.95846 4.94485 2.46337 5.77805 2.10111C6.62332 1.72677 7.52897 1.53961 8.495 1.53961C9.46103 1.53961 10.3606 1.72677 11.1938 2.10111C12.0391 2.46337 12.7817 2.95846 13.4217 3.58638C14.0497 4.21429 14.5447 4.95089 14.907 5.79616C15.2693 6.64144 15.4504 7.54105 15.4504 8.495ZM7.71614 3.85807V8.495C7.71614 8.65198 7.75237 8.79085 7.82482 8.9116C7.90935 9.03235 8.01802 9.12292 8.15085 9.1833L11.2482 10.741C11.4293 10.8376 11.6225 10.8557 11.8278 10.7954C12.0331 10.7229 12.184 10.5901 12.2806 10.3969C12.3772 10.2037 12.3893 10.0044 12.3168 9.79914C12.2565 9.59386 12.1297 9.44291 11.9365 9.34631L9.27386 8.02406V3.85807C9.27386 3.65279 9.19537 3.4777 9.03839 3.33279C8.89349 3.17581 8.71236 3.09732 8.495 3.09732C8.27764 3.09732 8.09048 3.17581 7.9335 3.33279C7.78859 3.4777 7.71614 3.65279 7.71614 3.85807Z"></path>
      </svg>