<svg width="21" height="17" viewBox="0 0 21 17" fill="currentColor" xmlns="http://www.w3.org/2000/svg">
          <path d="M14.3699 15.3407C14.1509 15.3407 13.941 15.2535 13.7862 15.0982C13.6314 14.943 13.5444 14.7324 13.5444 14.5128H11.8936C11.8936 15.1715 12.1545 15.8032 12.6189 16.269C13.0832 16.7347 13.7131 16.9964 14.3699 16.9964C15.0266 16.9964 15.6565 16.7347 16.1209 16.269C16.5853 15.8032 16.8462 15.1715 16.8462 14.5128H15.1953C15.1953 14.7324 15.1083 14.943 14.9535 15.0982C14.7987 15.2535 14.5888 15.3407 14.3699 15.3407Z"></path>
          <path d="M8.5612 15.3407C8.34228 15.3407 8.13233 15.2535 7.97753 15.0982C7.82273 14.943 7.73576 14.7324 7.73576 14.5128H6.07715C6.07715 14.8395 6.14129 15.1629 6.26592 15.4646C6.39055 15.7664 6.57322 16.0406 6.8035 16.2715C7.03378 16.5025 7.30717 16.6857 7.60805 16.8107C7.90893 16.9357 8.23141 17 8.55707 17C8.88274 17 9.20522 16.9357 9.5061 16.8107C9.80698 16.6857 10.0804 16.5025 10.3106 16.2715C10.5409 16.0406 10.7236 15.7664 10.8482 15.4646C10.9729 15.1629 11.037 14.8395 11.037 14.5128H9.38612C9.38612 14.7323 9.29923 14.9428 9.14454 15.098C8.98985 15.2533 8.78003 15.3406 8.5612 15.3407Z"></path>
          <path d="M19.3299 1.64401C19.2849 1.63633 19.2393 1.63252 19.1937 1.63263H5.9867C5.76778 1.63263 5.55782 1.71985 5.40302 1.8751C5.24823 2.03035 5.16126 2.24092 5.16126 2.46047C5.16126 2.68003 5.24823 2.8906 5.40302 3.04585C5.55782 3.2011 5.76778 3.28832 5.9867 3.28832H18.2192L18.001 4.60149L16.8438 11.5668H6.07595L3.26946 4.60149L1.59537 0.482961C1.50684 0.289212 1.34721 0.13717 1.14972 0.0584856C0.952225 -0.020199 0.732083 -0.0194636 0.535118 0.0605389C0.338153 0.140541 0.179541 0.293646 0.0922992 0.487983C0.00505767 0.682319 -0.00409102 0.902913 0.0667575 1.10384L2.73963 7.68158L4.56385 12.5307C4.6985 12.9389 4.97657 13.2224 5.37794 13.2224H17.5428C17.7383 13.2225 17.9275 13.1531 18.0766 13.0264C18.2258 12.8997 18.3253 12.724 18.3574 12.5307L19.675 4.60149L20.0083 2.59655C20.0443 2.38002 19.993 2.15803 19.8658 1.9794C19.7386 1.80077 19.5458 1.68013 19.3299 1.64401Z"></path>
        </svg>