<svg width="22" height="14" viewBox="0 0 22 14" fill="currentColor" xmlns="http://www.w3.org/2000/svg">
        <path d="M2 8H20C20.2812 8 20.5156 7.90625 20.7031 7.71875C20.9062 7.51562 21.0078 7.27344 21.0078 6.99219C21.0078 6.72656 20.9062 6.5 20.7031 6.3125C20.5156 6.10938 20.2812 6.00781 20 6.00781H2C1.71875 6.00781 1.47656 6.10938 1.27344 6.3125C1.08594 6.5 0.992188 6.72656 0.992188 6.99219C0.992188 7.27344 1.08594 7.51562 1.27344 7.71875C1.47656 7.90625 1.71875 8 2 8ZM2 2H20C20.2812 2 20.5156 1.90625 20.7031 1.71875C20.9062 1.51563 21.0078 1.27344 21.0078 0.992188C21.0078 0.726562 20.9062 0.5 20.7031 0.3125C20.5156 0.109375 20.2812 0.0078125 20 0.0078125H2C1.71875 0.0078125 1.47656 0.109375 1.27344 0.3125C1.08594 0.5 0.992188 0.726562 0.992188 0.992188C0.992188 1.27344 1.08594 1.51563 1.27344 1.71875C1.47656 1.90625 1.71875 2 2 2ZM2 14H20C20.2812 14 20.5156 13.9062 20.7031 13.7188C20.9062 13.5156 21.0078 13.2734 21.0078 12.9922C21.0078 12.7266 20.9062 12.5 20.7031 12.3125C20.5156 12.1094 20.2812 12.0078 20 12.0078H2C1.71875 12.0078 1.47656 12.1094 1.27344 12.3125C1.08594 12.5 0.992188 12.7266 0.992188 12.9922C0.992188 13.2734 1.08594 13.5156 1.27344 13.7188C1.47656 13.9062 1.71875 14 2 14Z" fill="#111111"></path>
    </svg>