<svg xmlns="http://www.w3.org/2000/svg" width="144" height="37" viewBox="0 0 144 37" fill="none">   <path d="M111.798 9.72958C111.368 9.34001 110.818 9.11011 110.241 9.07788H100.852L101.498 9.72958L110.204 18.5046C110.375 18.6755 110.606 18.7715 110.846 18.7715C111.087 18.7715 111.318 18.6755 111.488 18.5046L115.359 14.6127C115.528 14.4408 115.623 14.2081 115.623 13.9656C115.623 13.7231 115.528 13.4905 115.359 13.3185L111.798 9.72958Z" fill="#0D53BB"></path>   <path d="M123.719 21.7447C123.55 21.5728 123.454 21.3401 123.454 21.0976C123.454 20.8551 123.55 20.6225 123.719 20.4505L125.012 19.1471L126.296 17.8529L143.363 0.651699C143.718 0.293724 144.009 0 144 0H134.62C134.042 0.0322334 133.493 0.262133 133.063 0.651699L118.574 15.2553L117.281 16.522L115.778 18.0273L114.494 19.3674L113.392 20.4505L112.099 21.7447L110.687 23.1675L109.403 24.4708L97.6375 36.3483L97 37H106.389C106.963 36.9712 107.51 36.7443 107.937 36.3575L117.281 26.94C117.365 26.8539 117.466 26.7856 117.577 26.739C117.688 26.6924 117.807 26.6685 117.927 26.6685C118.048 26.6685 118.167 26.6924 118.278 26.739C118.389 26.7856 118.489 26.8539 118.574 26.94L124.038 32.4473C124.465 32.8368 125.011 33.0669 125.586 33.099H134.074C134.575 33.099 134.693 32.8053 134.338 32.4473L126.014 24.0578L124.73 22.7636L123.719 21.7447Z" fill="#0D53BB"></path>   <path d="M80.001 11.7408C79.9986 11.642 80.0169 11.5437 80.0548 11.4522C80.0928 11.3608 80.1495 11.2781 80.2215 11.2094C80.2904 11.1405 80.373 11.0864 80.464 11.0505C80.555 11.0145 80.6526 10.9974 80.7505 11.0003H85.4591C85.5571 10.9974 85.6546 11.0145 85.7456 11.0505C85.8367 11.0864 85.9192 11.1405 85.9882 11.2094C86.0601 11.2781 86.1169 11.3608 86.1548 11.4522C86.1928 11.5437 86.2111 11.642 86.2086 11.7408V24.2766C86.1849 24.9619 86.3175 25.6437 86.5966 26.2715C86.8245 26.7538 87.159 27.1795 87.5753 27.5173C87.9464 27.8033 88.368 28.019 88.8186 28.1532C89.596 28.3969 90.4307 28.3969 91.2081 28.1532C91.6552 28.0233 92.0718 27.8072 92.4338 27.5173C92.842 27.176 93.17 26.7509 93.3949 26.2715C93.6814 25.6458 93.8173 24.9629 93.7917 24.2766V11.7408C93.7892 11.642 93.8075 11.5437 93.8455 11.4522C93.8834 11.3608 93.9402 11.2781 94.0121 11.2094C94.0811 11.1405 94.1636 11.0864 94.2546 11.0505C94.3456 11.0145 94.4432 10.9974 94.5412 11.0003H99.2497C99.4471 10.9985 99.6372 11.0736 99.7788 11.2094C99.8491 11.2793 99.9048 11.3622 99.9426 11.4534C99.9804 11.5446 99.9997 11.6422 99.9992 11.7408V24.2766C100.015 25.641 99.7763 26.9967 99.2938 28.2752C98.8495 29.4277 98.161 30.4732 97.2746 31.3416C96.3678 32.204 95.29 32.8714 94.1091 33.3017C92.8011 33.7833 91.4135 34.0197 90.0178 33.9986C88.6191 34.0204 87.2285 33.784 85.9176 33.3017C84.7367 32.8714 83.6589 32.204 82.7521 31.3416C81.8659 30.4714 81.1749 29.4266 80.7241 28.2752C80.2272 27.0001 79.9818 25.6428 80.001 24.2766V11.7408Z" fill="#0D53BB"></path>   <path d="M78 28.9727V33.2459C78 33.4554 77.9275 33.6334 77.7824 33.7801C77.6374 33.9267 77.4613 34 77.2541 34H61.7459C61.518 34 61.3315 33.9267 61.1865 33.7801C61.0622 33.6334 61 33.4554 61 33.2459V11.7541C61 11.5446 61.0622 11.3666 61.1865 11.2199C61.3315 11.0733 61.518 11 61.7459 11H66.4077C66.6149 11 66.791 11.0733 66.936 11.2199C67.081 11.3666 67.1536 11.5446 67.1536 11.7541V27.4645C67.1536 27.674 67.2157 27.852 67.34 27.9986C67.4851 28.1453 67.6715 28.2186 67.8995 28.2186H77.2541C77.4613 28.2186 77.6374 28.2919 77.7824 28.4385C77.9275 28.5852 78 28.7632 78 28.9727Z" fill="#0D53BB"></path>   <path d="M57.9995 11.7405C58.0031 11.6423 57.9868 11.5444 57.9517 11.453C57.9166 11.3616 57.8633 11.2785 57.7954 11.2091C57.7274 11.1396 57.6461 11.0852 57.5566 11.0494C57.4671 11.0135 57.3713 10.9968 57.2752 11.0005H52.7166C52.6212 10.9981 52.5263 11.0156 52.4379 11.052C52.3494 11.0885 52.2691 11.143 52.2021 11.2123C52.135 11.2817 52.0826 11.3643 52.0479 11.4551C52.0133 11.5459 51.9973 11.643 52.0008 11.7405V22.7353V33.2339C51.9962 33.3328 52.0113 33.4317 52.0452 33.5245C52.0791 33.6172 52.1311 33.702 52.198 33.7737C52.2649 33.8453 52.3454 33.9023 52.4345 33.9412C52.5237 33.9801 52.6196 34.0001 52.7166 34H57.2667C57.3631 34.0004 57.4586 33.9814 57.5478 33.9441C57.637 33.9067 57.7181 33.8518 57.7865 33.7824C57.8533 33.7121 57.9058 33.629 57.9409 33.5378C57.976 33.4466 57.993 33.3493 57.991 33.2513V22.7353L57.9995 11.7405Z" fill="#111111"></path>   <path d="M48.9963 11.7841V33.2159C48.9677 33.4139 48.8746 33.5973 48.7311 33.7387C48.5876 33.8801 48.4014 33.9718 48.2005 34H43.4257C43.2247 33.9718 43.0385 33.8801 42.895 33.7387C42.7515 33.5973 42.6585 33.4139 42.6298 33.2159V23.1098C42.6298 22.9356 42.5414 22.7614 42.3646 22.7614C42.2734 22.7597 42.1836 22.7834 42.1055 22.8296C42.0273 22.8758 41.9639 22.9427 41.9225 23.0227L36.5287 31.5606C36.4669 31.6418 36.3868 31.7076 36.2947 31.753C36.2026 31.7984 36.1011 31.822 35.9981 31.822C35.8952 31.822 35.7936 31.7984 35.7016 31.753C35.6095 31.7076 35.5294 31.6418 35.4676 31.5606L30.0738 23.0227C30.0324 22.9427 29.969 22.8758 29.8908 22.8296C29.8126 22.7834 29.7229 22.7597 29.6317 22.7614C29.4549 22.7614 29.3664 22.9356 29.3664 23.1098V33.2159C29.3378 33.4139 29.2448 33.5973 29.1013 33.7387C28.9578 33.8801 28.7716 33.9718 28.5706 34H23.7958C23.5949 33.9718 23.4087 33.8801 23.2652 33.7387C23.1217 33.5973 23.0286 33.4139 23 33.2159V11.7841C23.0286 11.5861 23.1217 11.4027 23.2652 11.2613C23.4087 11.1199 23.5949 11.0282 23.7958 11H28.2169C28.4596 11.0267 28.6975 11.0853 28.9243 11.1742C29.0379 11.2081 29.1434 11.2641 29.2345 11.3389C29.3257 11.4137 29.4006 11.5059 29.4549 11.6098L35.6444 20.4962C35.6879 20.5744 35.7518 20.6396 35.8296 20.685C35.9074 20.7304 35.9961 20.7544 36.0866 20.7544C36.177 20.7544 36.2657 20.7304 36.3435 20.685C36.4213 20.6396 36.4853 20.5744 36.5287 20.4962L42.6564 11.6098C42.7106 11.5059 42.7855 11.4137 42.8767 11.3389C42.9678 11.2641 43.0733 11.2081 43.1869 11.1742C43.4104 11.0755 43.6499 11.0165 43.8943 11H48.3154C48.4171 11.0063 48.5165 11.0327 48.6076 11.0776C48.6988 11.1225 48.7798 11.185 48.846 11.2614C48.9615 11.4105 49.0152 11.5974 48.9963 11.7841Z" fill="#111111"></path>   <path d="M0.00104912 11.7408C-0.00142384 11.642 0.0168909 11.5437 0.0548351 11.4522C0.0927794 11.3608 0.149527 11.2781 0.221488 11.2094C0.290428 11.1405 0.372978 11.0864 0.463996 11.0505C0.555015 11.0145 0.652554 10.9974 0.75054 11.0003H5.4591C5.55709 10.9974 5.65463 11.0145 5.74565 11.0505C5.83667 11.0864 5.91922 11.1405 5.98816 11.2094C6.06012 11.2781 6.11686 11.3608 6.15481 11.4522C6.19275 11.5437 6.21107 11.642 6.2086 11.7408V24.2766C6.18492 24.9619 6.31751 25.6437 6.59657 26.2715C6.82454 26.7538 7.15898 27.1795 7.57531 27.5173C7.94641 27.8033 8.36795 28.019 8.81859 28.1532C9.596 28.3969 10.4307 28.3969 11.2081 28.1532C11.6552 28.0233 12.0718 27.8072 12.4338 27.5173C12.842 27.176 13.17 26.7509 13.3949 26.2715C13.6814 25.6458 13.8173 24.9629 13.7917 24.2766V11.7408C13.7892 11.642 13.8075 11.5437 13.8455 11.4522C13.8834 11.3608 13.9402 11.2781 14.0121 11.2094C14.0811 11.1405 14.1636 11.0864 14.2546 11.0505C14.3456 11.0145 14.4432 10.9974 14.5412 11.0003H19.2497C19.4471 10.9985 19.6372 11.0736 19.7788 11.2094C19.8491 11.2793 19.9048 11.3622 19.9426 11.4534C19.9804 11.5446 19.9997 11.6422 19.9992 11.7408V24.2766C20.0155 25.641 19.7763 26.9967 19.2938 28.2752C18.8495 29.4277 18.161 30.4732 17.2746 31.3416C16.3678 32.204 15.29 32.8714 14.1091 33.3017C12.8011 33.7833 11.4135 34.0197 10.0178 33.9986C8.61907 34.0204 7.22854 33.784 5.91762 33.3017C4.73671 32.8714 3.65888 32.204 2.75212 31.3416C1.86585 30.4714 1.17487 29.4266 0.724087 28.2752C0.227235 27.0001 -0.0181859 25.6428 0.00104912 24.2766V11.7408Z" fill="#111111"></path> </svg>