<svg width="36" height="36" viewBox="0 0 36 36" fill="none" xmlns="http://www.w3.org/2000/svg">
          <circle cx="18" cy="18" r="17.5" stroke="#555555"></circle>
          <path d="M24.9882 14.5648C24.8236 13.9529 24.3412 13.4706 23.7294 13.3058C22.6117 13 18.1411 13 18.1411 13C18.1411 13 13.6706 13 12.5529 13.2942C11.9529 13.4588 11.4587 13.953 11.2941 14.5648C11 15.6823 11 18 11 18C11 18 11 20.3294 11.2941 21.4352C11.4589 22.047 11.9411 22.5294 12.553 22.6941C13.6823 23 18.1412 23 18.1412 23C18.1412 23 22.6117 23 23.7294 22.7058C24.3413 22.5411 24.8236 22.0588 24.9884 21.447C25.2824 20.3294 25.2824 18.0118 25.2824 18.0118C25.2824 18.0118 25.2942 15.6823 24.9882 14.5648ZM16.7177 20.1412V15.8588L20.4353 18L16.7177 20.1412Z" fill="#555555"></path>
        </svg>