<svg width="17" height="17" viewBox="0 0 17 17" fill="currentColor" xmlns="http://www.w3.org/2000/svg">
            <path d="M16.8927 15.7682C16.0329 14.3137 14.8061 13.1078 13.3338 12.27C11.8614 11.4322 10.1946 10.9914 8.49845 10.9914C6.80225 10.9914 5.13546 11.4322 3.66314 12.27C2.19082 13.1078 0.964024 14.3137 0.104236 15.7682C-0.00102398 15.9568 -0.027822 16.179 0.0295835 16.387C0.0566587 16.493 0.106188 16.592 0.174854 16.6774C0.243521 16.7627 0.329737 16.8325 0.427728 16.8821C0.554141 16.9534 0.697158 16.9903 0.842462 16.9894C0.986554 16.9954 1.12952 16.9616 1.25545 16.8917C1.38138 16.8218 1.48536 16.7185 1.5558 16.5933C2.26752 15.3886 3.2833 14.3898 4.50251 13.6958C5.72172 13.0018 7.10204 12.6367 8.50674 12.6367C9.91144 12.6367 11.2918 13.0018 12.511 13.6958C13.7302 14.3898 14.746 15.3886 15.4577 16.5933C15.5685 16.7806 15.7491 16.9169 15.9603 16.9725C16.1715 17.0281 16.3963 16.9986 16.5858 16.8903C16.6801 16.8403 16.7628 16.7711 16.8285 16.6872C16.8943 16.6034 16.9415 16.5067 16.9673 16.4035C16.998 16.298 17.0072 16.1874 16.9944 16.0783C16.9816 15.9692 16.947 15.8638 16.8927 15.7682Z"></path>
            <path d="M8.49966 10.2C9.83622 10.2002 11.1195 9.67091 12.0732 8.72594C13.027 7.78097 13.5752 6.49588 13.5997 5.14718C13.5997 3.78206 13.0623 2.47286 12.1059 1.50757C11.1495 0.542291 9.85226 0 8.49966 0C7.14705 0 5.84985 0.542291 4.89341 1.50757C3.93698 2.47286 3.39966 3.78206 3.39966 5.14718C3.42416 6.49588 3.97228 7.78097 4.92607 8.72594C5.87987 9.67091 7.1631 10.2002 8.49966 10.2ZM5.09966 5.14718C5.09966 4.2371 5.45787 3.3643 6.09549 2.72078C6.73312 2.07725 7.59792 1.71573 8.49966 1.71573C9.40139 1.71573 10.2662 2.07725 10.9038 2.72078C11.5414 3.3643 11.8997 4.2371 11.8997 5.14718C11.8997 6.05726 11.5414 6.93006 10.9038 7.57359C10.2662 8.21711 9.40139 8.57864 8.49966 8.57864C7.59792 8.57864 6.73312 8.21711 6.09549 7.57359C5.45787 6.93006 5.09966 6.05726 5.09966 5.14718Z"></path>
        </svg>