<svg width="36" height="36" viewBox="0 0 36 36" fill="none" xmlns="http://www.w3.org/2000/svg">
          <circle cx="18" cy="18" r="17.5" stroke="#555555"></circle>
          <path d="M21.6 12H14.4C13.0745 12 12 13.0745 12 14.4V21.6C12 22.9255 13.0745 24 14.4 24H21.6C22.9255 24 24 22.9255 24 21.6V14.4C24.0001 13.0745 22.9255 12 21.6 12ZM20.4 13.8H22.2V15.6H20.4V13.8ZM18 15.6001C19.3255 15.6001 20.4 16.6746 20.4 18.0001C20.4 19.3255 19.3255 20.4 18 20.4C16.6745 20.4 15.6 19.3255 15.6 18.0001C15.6 16.6746 16.6745 15.6001 18 15.6001ZM22.8 21.6001C22.8 22.2628 22.2627 22.8001 21.6 22.8001H14.4C13.7373 22.8001 13.2 22.2628 13.2 21.6001V17.4H14.46C14.0996 19.3553 15.3926 21.2325 17.3479 21.5929C19.3032 21.9533 21.1804 20.6603 21.5408 18.705C21.5836 18.4725 21.6035 18.2364 21.6 18.0001C21.597 17.7987 21.577 17.598 21.54 17.4001H22.8V21.6001H22.8Z" fill="#555555"></path>
        </svg>