<svg width="36" height="36" viewBox="0 0 36 36" fill="none" xmlns="http://www.w3.org/2000/svg">
          <circle cx="18" cy="18" r="17.5" stroke="#555555"></circle>
          <path d="M21.0117 12.8047C20.0924 12.2682 19.0885 12 18 12C16.9114 12 15.9074 12.2682 14.9882 12.8047C14.069 13.3412 13.3411 14.0691 12.8047 14.9882C12.2682 15.9075 12 16.9115 12 18C12 19.2135 12.3306 20.3151 12.9921 21.3045C13.6536 22.2943 14.5207 23.026 15.5937 23.4998C15.5728 22.9425 15.6067 22.4817 15.6953 22.1171L16.4687 18.8515C16.3384 18.5964 16.2734 18.2787 16.2734 17.8984C16.2734 17.4557 16.3854 17.0858 16.6093 16.7891C16.8331 16.4921 17.1066 16.3436 17.4296 16.3436C17.6899 16.3436 17.8905 16.4295 18.0312 16.6015C18.1718 16.7733 18.2422 16.9896 18.2422 17.2499C18.2422 17.4115 18.2121 17.6081 18.1524 17.8398C18.0924 18.0716 18.0143 18.3398 17.9181 18.6445C17.8217 18.9491 17.7527 19.1926 17.711 19.3749C17.6379 19.6926 17.6979 19.9647 17.8907 20.1913C18.0833 20.4179 18.3386 20.5311 18.6563 20.5311C19.2136 20.5311 19.6707 20.2213 20.0275 19.6015C20.3842 18.9817 20.5626 18.2291 20.5626 17.3436C20.5626 16.6614 20.3426 16.1066 19.9025 15.6795C19.4623 15.2526 18.849 15.0389 18.0626 15.0389C17.1823 15.0389 16.4701 15.3215 15.9259 15.8865C15.3817 16.4516 15.1095 17.1275 15.1095 17.9137C15.1095 18.3825 15.2424 18.7759 15.508 19.0935C15.5965 19.1977 15.6251 19.3096 15.5939 19.4293C15.5834 19.4606 15.5626 19.5387 15.5314 19.6636C15.5002 19.7885 15.4793 19.8695 15.4689 19.9058C15.4272 20.0726 15.3283 20.1247 15.1719 20.0621C14.7709 19.8954 14.4661 19.6064 14.2579 19.1949C14.0496 18.7836 13.9454 18.307 13.9454 17.7653C13.9454 17.4164 14.0014 17.0674 14.1133 16.7184C14.2253 16.3694 14.3997 16.0323 14.6368 15.7066C14.8737 15.3813 15.1576 15.0934 15.4884 14.8434C15.8192 14.5934 16.2215 14.393 16.6955 14.2417C17.1694 14.0908 17.6799 14.0153 18.2268 14.0153C18.9664 14.0153 19.6305 14.1793 20.219 14.5074C20.8075 14.8356 21.2567 15.2601 21.5667 15.7809C21.8764 16.3017 22.0315 16.8589 22.0315 17.4528C22.0315 18.2341 21.896 18.9372 21.6253 19.5623C21.3544 20.1873 20.9716 20.6782 20.4768 21.0349C19.9818 21.3916 19.4193 21.57 18.7892 21.57C18.4715 21.57 18.1746 21.4958 17.8985 21.3473C17.6223 21.1988 17.4323 21.0231 17.3282 20.8199C17.0938 21.7417 16.9532 22.2914 16.9063 22.4683C16.8072 22.8382 16.6041 23.2651 16.2968 23.7496C16.8542 23.9162 17.4219 23.9995 18 23.9995C19.0885 23.9995 20.0924 23.7313 21.0117 23.1949C21.9309 22.6584 22.6587 21.9305 23.1953 21.0112C23.7317 20.0919 24 19.0881 24 17.9995C24 16.9108 23.7317 15.9071 23.1953 14.9877C22.6589 14.0691 21.9309 13.3412 21.0117 12.8047Z" fill="#555555"></path>
        </svg>