<svg width="36" height="36" viewBox="0 0 36 36" fill="none" xmlns="http://www.w3.org/2000/svg">
          <circle cx="18" cy="18" r="17.5" stroke="#555555"></circle>
          <path d="M23.6699 13.1753C23.1855 13.4746 22.656 13.6861 22.1039 13.801C21.6347 13.2878 20.9839 12.9982 20.3039 13.0001C18.9645 12.9896 17.8669 14.1062 17.8439 15.5028C17.8445 15.6967 17.8666 15.8899 17.9099 16.0785C15.9372 15.9814 14.0949 15.023 12.8339 13.4381C12.6182 13.8171 12.5023 14.2488 12.4979 14.6895C12.498 15.5392 12.9115 16.3309 13.596 16.7918C13.2051 16.7786 12.8227 16.6692 12.4799 16.4727C12.4799 16.4727 12.4799 16.4727 12.4799 16.504C12.476 17.7244 13.3048 18.7753 14.454 19.0068C14.0917 19.1075 13.7124 19.1224 13.344 19.0506C13.6753 20.0844 14.5968 20.787 15.642 20.8026C14.7719 21.5081 13.7021 21.8932 12.6 21.8975C12.3995 21.8973 12.1991 21.8848 12 21.86C13.1291 22.6048 14.4379 22.9998 15.774 22.9988C19.5841 23.0714 22.7292 19.9092 22.7989 15.9359C22.7996 15.8938 22.8 15.8517 22.8 15.8095C22.8 15.701 22.8 15.5926 22.8 15.4841C23.2702 15.1247 23.6764 14.6821 24 14.1764C23.5496 14.3821 23.0724 14.517 22.584 14.5769C23.0976 14.2633 23.4838 13.7649 23.6699 13.1753Z" fill="#555555"></path>
        </svg>